<?xml version="1.0" encoding="utf-8"?>
<!-- Generator: Adobe Illustrator 25.4.1, SVG Export Plug-In . SVG Version: 6.00 Build 0)  -->
<svg version="1.1" id="Capa_1" xmlns="http://www.w3.org/2000/svg" xmlns:xlink="http://www.w3.org/1999/xlink" x="0px" y="0px"
	 viewBox="0 0 2784.5 701" style="enable-background:new 0 0 2784.5 701;" xml:space="preserve">
<style type="text/css">
	.st0{fill:#F7971D;}
	.st1{fill:#FFFFFF;}
</style>
<path class="st0" d="M2732.4,0.2H1715.8c-31.6,3.5-49.1,22.8-52.2,58.2v584.1c3.1,35.2,20.4,54.6,51.9,58.2h1017.1
	c31.4-3.7,48.8-23,51.9-58.2V58.4C2781.4,23.2,2763.9,3.7,2732.4,0.2"/>
<path d="M2681.5,272.3c-17.2-19-40.5-31.3-65.7-36.9c-7.3-1.8-15.5-3.2-24.8-3.7c-33.4-2.8-76.1,10.3-96.1,27.1l4.8-136.7h-81.2
	v423.4h75.4V522c17.3,14.1,45.1,30.3,87.8,30.3h8c35.7,0,66-14.1,90.9-42.3c24.9-28.5,37.4-68.8,37.4-121.2
	c0-50.7-12.1-89.5-36.6-116.6 M2615.9,465.4c-12.4,15.2-27.8,22.8-45.7,22.8c-23.3,0-42-10.7-56-32.4
	c-10.1-15.1-15.2-38.6-15.2-70.5c0-30.7,6.5-53.6,19.3-68.8c12.7-15.1,29-22.6,48.5-22.6c19.7,0,36.1,7.6,48.8,23.1
	c12.7,15.5,19,40.9,19,75.8c0,33-6.3,57.1-18.9,72.3 M2287.6,368c0,43.7-2,71.5-6.1,82.7c-4.2,11.3-11.7,20.7-22.6,28.2
	c-11.3,7.8-23.5,11.3-37.4,11.3c-12.1,0-22.1-2.8-30-8.5s-13.4-13.2-16.4-23c-2.8-9.9-4.5-36.1-4.5-79.4v-141h-81.2V433
	c0,28.8,3.7,51.3,11,67.7c7.3,16.4,19.2,29.2,35.5,38.1c16.4,9.2,34.8,13.7,55.5,13.7c3.1,0,6.1,0,9.2-0.3
	c51.9-1.4,78.9-24.9,92.5-40.5v33.8h75.4v-307h-81.2L2287.6,368z M2022.6,268.6c-7.5-10.9-18.7-19.7-33.8-26.8
	c-13.5-6.1-28.6-9.4-45.1-10.1h-0.8c-34.3-1.8-77.9,8.2-98.4,27.8V122h-81.2v423.4h81.2V391.8c0-25.8,2.4-45.4,7.3-58.5
	c4.9-13.2,12.7-23.1,23.3-29.6c10.6-6.6,22.6-9.9,36.1-9.9c11.8,0,21.7,2.5,29.6,7.6c7.6,5.1,13.1,12,16.2,20.7
	c3.1,8.5,4.7,29,4.7,61.2v162.1h81V365.3c0-27.3-1.4-47.6-4.2-60.6c-2.8-13.2-7.9-25.4-15.5-35.9"/>
<g>
	<g>
		<path class="st1" d="M0,545.5V104.2h143c54.2,0,89.5,2.2,106,6.6c25.3,6.6,46.5,21,63.5,43.2c17.1,22.2,25.6,50.8,25.6,85.9
			c0,27.1-4.9,49.9-14.8,68.3c-9.8,18.5-22.3,33-37.5,43.5c-15.2,10.5-30.6,17.5-46.2,20.9c-21.3,4.2-52.1,6.3-92.4,6.3H89.1v166.5
			H0z M89.1,178.8v125.2h48.8c35.1,0,58.6-2.3,70.4-6.9c11.8-4.6,21.1-11.8,27.8-21.7c6.7-9.8,10.1-21.3,10.1-34.3
			c0-16.1-4.7-29.3-14.1-39.7c-9.4-10.4-21.4-17-35.8-19.6c-10.6-2-32-3-64.1-3H89.1z"/>
		<path class="st1" d="M460.9,104.2v162.2c27.3-31.9,59.9-47.9,97.8-47.9c19.5,0,37,3.6,52.7,10.8c15.7,7.2,27.4,16.5,35.4,27.7
			c7.9,11.2,13.3,23.7,16.3,37.3c2.9,13.6,4.4,34.8,4.4,63.5v187.5h-84.6V376.6c0-33.5-1.6-54.8-4.8-63.8c-3.2-9-8.9-16.2-17-21.5
			c-8.1-5.3-18.3-8-30.6-8c-14,0-26.6,3.4-37.6,10.2c-11,6.8-19.1,17.1-24.2,30.9c-5.1,13.7-7.7,34.1-7.7,61v160.1h-84.6V104.2
			H460.9z"/>
		<path class="st1" d="M699.6,381.1c0-28.1,6.9-55.3,20.8-81.6c13.8-26.3,33.5-46.4,58.8-60.2c25.4-13.8,53.7-20.8,85-20.8
			c48.4,0,88,15.7,118.9,47.1c30.9,31.4,46.4,71.1,46.4,119.1c0,48.4-15.6,88.5-46.8,120.3c-31.2,31.8-70.5,47.7-117.8,47.7
			c-29.3,0-57.2-6.6-83.8-19.9c-26.6-13.2-46.8-32.7-60.7-58.2S699.6,417.9,699.6,381.1z M786.3,385.6c0,31.7,7.5,56,22.6,72.8
			c15.1,16.9,33.6,25.3,55.7,25.3c22.1,0,40.6-8.4,55.5-25.3c14.9-16.9,22.4-41.3,22.4-73.4c0-31.3-7.5-55.4-22.4-72.2
			c-15-16.9-33.5-25.3-55.5-25.3c-22.1,0-40.6,8.4-55.7,25.3C793.8,329.7,786.3,353.9,786.3,385.6z"/>
		<path class="st1" d="M1217.3,225.8v67.4h-57.8v128.8c0,26.1,0.5,41.3,1.7,45.6c1.1,4.3,3.6,7.9,7.5,10.7c3.9,2.8,8.7,4.2,14.3,4.2
			c7.8,0,19.2-2.7,34-8.1l7.2,65.6c-19.7,8.4-41.9,12.6-66.8,12.6c-15.3,0-29-2.6-41.2-7.7c-12.2-5.1-21.2-11.7-26.9-19.9
			c-5.7-8.1-9.7-19.1-11.9-33c-1.8-9.8-2.7-29.7-2.7-59.6V293.2h-38.8v-67.4h38.8v-63.5l84.9-49.4v112.9H1217.3z"/>
		<path class="st1" d="M1244.5,381.1c0-28.1,6.9-55.3,20.8-81.6c13.8-26.3,33.5-46.4,58.8-60.2c25.4-13.8,53.7-20.8,85-20.8
			c48.4,0,88,15.7,118.9,47.1c30.9,31.4,46.4,71.1,46.4,119.1c0,48.4-15.6,88.5-46.8,120.3c-31.2,31.8-70.5,47.7-117.8,47.7
			c-29.3,0-57.2-6.6-83.8-19.9c-26.6-13.2-46.8-32.7-60.7-58.2C1251.4,449,1244.5,417.9,1244.5,381.1z M1331.2,385.6
			c0,31.7,7.5,56,22.6,72.8c15.1,16.9,33.6,25.3,55.7,25.3c22.1,0,40.6-8.4,55.5-25.3c14.9-16.9,22.4-41.3,22.4-73.4
			c0-31.3-7.5-55.4-22.4-72.2c-15-16.9-33.5-25.3-55.5-25.3c-22.1,0-40.6,8.4-55.7,25.3S1331.2,353.9,1331.2,385.6z"/>
	</g>
</g>
</svg>
